<svg width="14" height="12" viewBox="0 0 14 12" fill="none" xmlns="http://www.w3.org/2000/svg">
<path d="M5.37973 11.4966C5.24846 11.497 5.11843 11.4663 4.99711 11.4063C4.87578 11.3463 4.76555 11.2582 4.67273 11.1471L0.430726 6.06826C0.335153 5.95792 0.258894 5.82591 0.206401 5.67991C0.153907 5.53392 0.12623 5.37687 0.124983 5.21794C0.123736 5.05901 0.148945 4.90137 0.199139 4.75422C0.249333 4.60707 0.323507 4.47336 0.417332 4.3609C0.511158 4.24843 0.622756 4.15945 0.745615 4.09916C0.868475 4.03887 1.00013 4.00848 1.13291 4.00974C1.26569 4.01101 1.39693 4.04392 1.51897 4.10655C1.64101 4.16917 1.75141 4.26027 1.84373 4.37451L5.37873 8.6059L11.7437 0.989406C11.9312 0.764801 12.1856 0.638555 12.4509 0.638443C12.7161 0.638331 12.9706 0.764361 13.1582 0.988807C13.3459 1.21325 13.4513 1.51773 13.4514 1.83526C13.4515 2.15279 13.3462 2.45735 13.1587 2.68196L6.08673 11.1471C5.9939 11.2582 5.88367 11.3463 5.76234 11.4063C5.64102 11.4663 5.51099 11.497 5.37973 11.4966Z" fill="#2FAB73"/>
</svg>
